<svg xmlns="http://www.w3.org/2000/svg" viewBox="0 0 512 512" width="512" height="512">
  <rect width="512" height="512" rx="112" fill="#b5502f"/>
  <g transform="translate(102.4 102.4) scale(9.6)">
    <path d="M9 4h14a6 6 0 0 1 6 6v6a6 6 0 0 1-6 6h-8.5l-5.6 5.1c-.9.8-2.2.1-2.2-1V22H9a6 6 0 0 1-6-6v-6a6 6 0 0 1 6-6z M7.85 15.6a2.75 2.75 0 1 0 5.5 0a2.75 2.75 0 1 0-5.5 0 M12.85 12.6a3.15 3.15 0 1 0 6.3 0a3.15 3.15 0 1 0-6.3 0 M18.5 15.3a2.9 2.9 0 1 0 5.8 0a2.9 2.9 0 1 0-5.8 0" fill="#ffffff" fill-rule="evenodd"/>
  </g>
</svg>
